<svg xmlns="http://www.w3.org/2000/svg" viewBox="0 0 650 400" width="650" height="400" font-family="monospace">
  <defs>
    <marker id="arrow" markerWidth="8" markerHeight="6" refX="4" refY="3" orient="auto">
      <path d="M0,0 L8,3 L0,6 Z" fill="#3b82f6"/>
    </marker>
  </defs>

  <!-- Background -->
  <rect width="650" height="400" rx="6" fill="#0f172a"/>

  <!-- Google QPS box -->
  <rect x="225" y="12" width="200" height="36" rx="4" fill="none" stroke="#3b82f6" stroke-width="2"/>
  <text x="325" y="36" text-anchor="middle" fill="#e2e8f0" font-size="15" font-weight="bold">Google QPS</text>

  <!-- Nozzle -->
  <line x1="285" y1="48" x2="285" y2="62" stroke="#3b82f6" stroke-width="2"/>
  <line x1="365" y1="48" x2="365" y2="62" stroke="#3b82f6" stroke-width="2"/>
  <line x1="285" y1="62" x2="365" y2="62" stroke="#3b82f6" stroke-width="2"/>

  <!-- Arrows showing direction -->
  <line x1="305" y1="62" x2="305" y2="85" stroke="#3b82f6" stroke-width="1.5" marker-end="url(#arrow)"/>
  <line x1="325" y1="62" x2="325" y2="90" stroke="#3b82f6" stroke-width="1.5" marker-end="url(#arrow)"/>
  <line x1="345" y1="62" x2="345" y2="85" stroke="#3b82f6" stroke-width="1.5" marker-end="url(#arrow)"/>
  <!-- Angled arrows at edges -->
  <line x1="290" y1="62" x2="270" y2="88" stroke="#3b82f6" stroke-width="1.5" marker-end="url(#arrow)"/>
  <line x1="360" y1="62" x2="380" y2="88" stroke="#3b82f6" stroke-width="1.5" marker-end="url(#arrow)"/>

  <!-- Rain droplets - generated rows fanning from nozzle to full width -->
  <g fill="#60a5fa" opacity="0.6">
    <!-- Row 1 - narrow -->
    <circle cx="278" cy="100" r="1.8"/><circle cx="292" cy="102" r="1.5"/><circle cx="306" cy="99" r="1.8"/><circle cx="320" cy="101" r="1.5"/><circle cx="334" cy="100" r="1.8"/><circle cx="348" cy="102" r="1.5"/><circle cx="362" cy="99" r="1.8"/>
    <!-- Row 2 -->
    <circle cx="262" cy="115" r="1.8"/><circle cx="276" cy="117" r="1.5"/><circle cx="290" cy="114" r="1.8"/><circle cx="304" cy="116" r="1.5"/><circle cx="318" cy="115" r="1.8"/><circle cx="332" cy="117" r="1.5"/><circle cx="346" cy="114" r="1.8"/><circle cx="360" cy="116" r="1.5"/><circle cx="374" cy="115" r="1.8"/>
    <!-- Row 3 -->
    <circle cx="248" cy="130" r="1.8"/><circle cx="262" cy="132" r="1.5"/><circle cx="276" cy="129" r="1.8"/><circle cx="290" cy="131" r="1.5"/><circle cx="304" cy="130" r="1.8"/><circle cx="318" cy="132" r="1.5"/><circle cx="332" cy="129" r="1.8"/><circle cx="346" cy="131" r="1.5"/><circle cx="360" cy="130" r="1.8"/><circle cx="374" cy="132" r="1.5"/><circle cx="388" cy="129" r="1.8"/>
    <!-- Row 4 -->
    <circle cx="234" cy="145" r="1.8"/><circle cx="248" cy="147" r="1.5"/><circle cx="262" cy="144" r="1.8"/><circle cx="276" cy="146" r="1.5"/><circle cx="290" cy="145" r="1.8"/><circle cx="304" cy="147" r="1.5"/><circle cx="318" cy="144" r="1.8"/><circle cx="332" cy="146" r="1.5"/><circle cx="346" cy="145" r="1.8"/><circle cx="360" cy="147" r="1.5"/><circle cx="374" cy="144" r="1.8"/><circle cx="388" cy="146" r="1.5"/><circle cx="402" cy="145" r="1.8"/>
    <!-- Row 5 -->
    <circle cx="218" cy="160" r="1.8"/><circle cx="232" cy="162" r="1.5"/><circle cx="248" cy="159" r="1.8"/><circle cx="262" cy="161" r="1.5"/><circle cx="276" cy="160" r="1.8"/><circle cx="290" cy="162" r="1.5"/><circle cx="304" cy="159" r="1.8"/><circle cx="318" cy="161" r="1.5"/><circle cx="332" cy="160" r="1.8"/><circle cx="346" cy="162" r="1.5"/><circle cx="360" cy="159" r="1.8"/><circle cx="374" cy="161" r="1.5"/><circle cx="388" cy="160" r="1.8"/><circle cx="402" cy="162" r="1.5"/><circle cx="416" cy="159" r="1.8"/>
    <!-- Row 6 -->
    <circle cx="202" cy="175" r="1.8"/><circle cx="218" cy="177" r="1.5"/><circle cx="232" cy="174" r="1.8"/><circle cx="248" cy="176" r="1.5"/><circle cx="262" cy="175" r="1.8"/><circle cx="276" cy="177" r="1.5"/><circle cx="290" cy="174" r="1.8"/><circle cx="304" cy="176" r="1.5"/><circle cx="318" cy="175" r="1.8"/><circle cx="332" cy="177" r="1.5"/><circle cx="346" cy="174" r="1.8"/><circle cx="360" cy="176" r="1.5"/><circle cx="374" cy="175" r="1.8"/><circle cx="388" cy="177" r="1.5"/><circle cx="402" cy="174" r="1.8"/><circle cx="416" cy="176" r="1.5"/><circle cx="432" cy="175" r="1.8"/>
    <!-- Row 7 -->
    <circle cx="186" cy="190" r="1.8"/><circle cx="202" cy="192" r="1.5"/><circle cx="218" cy="189" r="1.8"/><circle cx="232" cy="191" r="1.5"/><circle cx="248" cy="190" r="1.8"/><circle cx="262" cy="192" r="1.5"/><circle cx="276" cy="189" r="1.8"/><circle cx="290" cy="191" r="1.5"/><circle cx="304" cy="190" r="1.8"/><circle cx="318" cy="192" r="1.5"/><circle cx="332" cy="189" r="1.8"/><circle cx="346" cy="191" r="1.5"/><circle cx="360" cy="190" r="1.8"/><circle cx="374" cy="192" r="1.5"/><circle cx="388" cy="189" r="1.8"/><circle cx="402" cy="191" r="1.5"/><circle cx="416" cy="190" r="1.8"/><circle cx="432" cy="192" r="1.5"/><circle cx="448" cy="189" r="1.8"/>
    <!-- Row 8 -->
    <circle cx="170" cy="205" r="1.8"/><circle cx="186" cy="207" r="1.5"/><circle cx="202" cy="204" r="1.8"/><circle cx="218" cy="206" r="1.5"/><circle cx="232" cy="205" r="1.8"/><circle cx="248" cy="207" r="1.5"/><circle cx="262" cy="204" r="1.8"/><circle cx="276" cy="206" r="1.5"/><circle cx="290" cy="205" r="1.8"/><circle cx="304" cy="207" r="1.5"/><circle cx="318" cy="204" r="1.8"/><circle cx="332" cy="206" r="1.5"/><circle cx="346" cy="205" r="1.8"/><circle cx="360" cy="207" r="1.5"/><circle cx="374" cy="204" r="1.8"/><circle cx="388" cy="206" r="1.5"/><circle cx="402" cy="205" r="1.8"/><circle cx="416" cy="207" r="1.5"/><circle cx="432" cy="204" r="1.8"/><circle cx="448" cy="206" r="1.5"/><circle cx="464" cy="205" r="1.8"/>
    <!-- Row 9 -->
    <circle cx="154" cy="220" r="1.8"/><circle cx="170" cy="222" r="1.5"/><circle cx="186" cy="219" r="1.8"/><circle cx="202" cy="221" r="1.5"/><circle cx="218" cy="220" r="1.8"/><circle cx="232" cy="222" r="1.5"/><circle cx="248" cy="219" r="1.8"/><circle cx="262" cy="221" r="1.5"/><circle cx="276" cy="220" r="1.8"/><circle cx="290" cy="222" r="1.5"/><circle cx="304" cy="219" r="1.8"/><circle cx="318" cy="221" r="1.5"/><circle cx="332" cy="220" r="1.8"/><circle cx="346" cy="222" r="1.5"/><circle cx="360" cy="219" r="1.8"/><circle cx="374" cy="221" r="1.5"/><circle cx="388" cy="220" r="1.8"/><circle cx="402" cy="222" r="1.5"/><circle cx="416" cy="219" r="1.8"/><circle cx="432" cy="221" r="1.5"/><circle cx="448" cy="220" r="1.8"/><circle cx="464" cy="222" r="1.5"/><circle cx="480" cy="219" r="1.8"/>
    <!-- Row 10 -->
    <circle cx="138" cy="235" r="1.8"/><circle cx="154" cy="237" r="1.5"/><circle cx="170" cy="234" r="1.8"/><circle cx="186" cy="236" r="1.5"/><circle cx="202" cy="235" r="1.8"/><circle cx="218" cy="237" r="1.5"/><circle cx="232" cy="234" r="1.8"/><circle cx="248" cy="236" r="1.5"/><circle cx="262" cy="235" r="1.8"/><circle cx="276" cy="237" r="1.5"/><circle cx="290" cy="234" r="1.8"/><circle cx="304" cy="236" r="1.5"/><circle cx="318" cy="235" r="1.8"/><circle cx="332" cy="237" r="1.5"/><circle cx="346" cy="234" r="1.8"/><circle cx="360" cy="236" r="1.5"/><circle cx="374" cy="235" r="1.8"/><circle cx="388" cy="237" r="1.5"/><circle cx="402" cy="234" r="1.8"/><circle cx="416" cy="236" r="1.5"/><circle cx="432" cy="235" r="1.8"/><circle cx="448" cy="237" r="1.5"/><circle cx="464" cy="234" r="1.8"/><circle cx="480" cy="236" r="1.5"/><circle cx="496" cy="235" r="1.8"/>
    <!-- Row 11 -->
    <circle cx="122" cy="250" r="1.8"/><circle cx="138" cy="252" r="1.5"/><circle cx="154" cy="249" r="1.8"/><circle cx="170" cy="251" r="1.5"/><circle cx="186" cy="250" r="1.8"/><circle cx="202" cy="252" r="1.5"/><circle cx="218" cy="249" r="1.8"/><circle cx="232" cy="251" r="1.5"/><circle cx="248" cy="250" r="1.8"/><circle cx="262" cy="252" r="1.5"/><circle cx="276" cy="249" r="1.8"/><circle cx="290" cy="251" r="1.5"/><circle cx="304" cy="250" r="1.8"/><circle cx="318" cy="252" r="1.5"/><circle cx="332" cy="249" r="1.8"/><circle cx="346" cy="251" r="1.5"/><circle cx="360" cy="250" r="1.8"/><circle cx="374" cy="252" r="1.5"/><circle cx="388" cy="249" r="1.8"/><circle cx="402" cy="251" r="1.5"/><circle cx="416" cy="250" r="1.8"/><circle cx="432" cy="252" r="1.5"/><circle cx="448" cy="249" r="1.8"/><circle cx="464" cy="251" r="1.5"/><circle cx="480" cy="250" r="1.8"/><circle cx="496" cy="252" r="1.5"/><circle cx="512" cy="249" r="1.8"/>
    <!-- Row 12 -->
    <circle cx="106" cy="265" r="1.8"/><circle cx="122" cy="267" r="1.5"/><circle cx="138" cy="264" r="1.8"/><circle cx="154" cy="266" r="1.5"/><circle cx="170" cy="265" r="1.8"/><circle cx="186" cy="267" r="1.5"/><circle cx="202" cy="264" r="1.8"/><circle cx="218" cy="266" r="1.5"/><circle cx="232" cy="265" r="1.8"/><circle cx="248" cy="267" r="1.5"/><circle cx="262" cy="264" r="1.8"/><circle cx="276" cy="266" r="1.5"/><circle cx="290" cy="265" r="1.8"/><circle cx="304" cy="267" r="1.5"/><circle cx="318" cy="264" r="1.8"/><circle cx="332" cy="266" r="1.5"/><circle cx="346" cy="265" r="1.8"/><circle cx="360" cy="267" r="1.5"/><circle cx="374" cy="264" r="1.8"/><circle cx="388" cy="266" r="1.5"/><circle cx="402" cy="265" r="1.8"/><circle cx="416" cy="267" r="1.5"/><circle cx="432" cy="264" r="1.8"/><circle cx="448" cy="266" r="1.5"/><circle cx="464" cy="265" r="1.8"/><circle cx="480" cy="267" r="1.5"/><circle cx="496" cy="264" r="1.8"/><circle cx="512" cy="266" r="1.5"/><circle cx="528" cy="265" r="1.8"/>
    <!-- Row 13 - widest -->
    <circle cx="90" cy="280" r="1.8"/><circle cx="106" cy="282" r="1.5"/><circle cx="122" cy="279" r="1.8"/><circle cx="138" cy="281" r="1.5"/><circle cx="154" cy="280" r="1.8"/><circle cx="170" cy="282" r="1.5"/><circle cx="186" cy="279" r="1.8"/><circle cx="202" cy="281" r="1.5"/><circle cx="218" cy="280" r="1.8"/><circle cx="232" cy="282" r="1.5"/><circle cx="248" cy="279" r="1.8"/><circle cx="262" cy="281" r="1.5"/><circle cx="276" cy="280" r="1.8"/><circle cx="290" cy="282" r="1.5"/><circle cx="304" cy="279" r="1.8"/><circle cx="318" cy="281" r="1.5"/><circle cx="332" cy="280" r="1.8"/><circle cx="346" cy="282" r="1.5"/><circle cx="360" cy="279" r="1.8"/><circle cx="374" cy="281" r="1.5"/><circle cx="388" cy="280" r="1.8"/><circle cx="402" cy="282" r="1.5"/><circle cx="416" cy="279" r="1.8"/><circle cx="432" cy="281" r="1.5"/><circle cx="448" cy="280" r="1.8"/><circle cx="464" cy="282" r="1.5"/><circle cx="480" cy="279" r="1.8"/><circle cx="496" cy="281" r="1.5"/><circle cx="512" cy="280" r="1.8"/><circle cx="528" cy="282" r="1.5"/><circle cx="544" cy="279" r="1.8"/><circle cx="560" cy="281" r="1.5"/>
  </g>

  <!-- Bidder bucket (open top) -->
  <line x1="305" y1="295" x2="305" y2="335" stroke="#f59e0b" stroke-width="2.5"/>
  <line x1="345" y1="295" x2="345" y2="335" stroke="#f59e0b" stroke-width="2.5"/>
  <line x1="305" y1="335" x2="345" y2="335" stroke="#f59e0b" stroke-width="2.5"/>

  <!-- "waste" labels -->
  <text x="180" y="320" text-anchor="middle" fill="#ef4444" font-size="14" opacity="0.8">waste</text>
  <text x="470" y="320" text-anchor="middle" fill="#ef4444" font-size="14" opacity="0.8">waste</text>

  <!-- "your bidder" label -->
  <text x="325" y="358" text-anchor="middle" fill="#f59e0b" font-size="13" font-weight="bold">your bidder</text>
</svg>
